<svg width="86" height="86" viewBox="0 0 86 86" fill="none" xmlns="http://www.w3.org/2000/svg">
<circle cx="43" cy="43" r="42" stroke="#0039A9" stroke-width="2"/>
<path d="M42.8516 22.9487C32.8521 22.9487 27.7438 26.0018 27.7438 26.0018C27.5508 26.0984 27.3953 26.2564 27.3016 26.4511C27.208 26.6459 27.1815 26.8662 27.2264 27.0776C27.2264 27.0776 27.9949 45.1195 30.2232 53.4513C31.1279 56.8341 34.2646 59.3376 37.0791 61.1006C39.8936 62.8636 42.5016 63.8679 42.5016 63.8679C42.7269 63.9548 42.9764 63.9548 43.2016 63.8679C43.2016 63.8679 45.8097 62.8636 48.6241 61.1006C51.4386 59.3376 54.5753 56.8341 55.48 53.4513C57.7084 45.1195 57.6838 26.567 57.6838 26.567C57.7286 26.3556 57.7022 26.1352 57.6085 25.9405C57.5149 25.7458 57.3594 25.5878 57.1664 25.4912C57.1664 25.4912 52.8511 22.9487 42.8516 22.9487ZM42.8516 24.9003C51.1173 24.9003 54.3819 26.2339 56.0008 26.974C55.9583 27.1736 55.9014 27.9723 55.9014 28.9684C53.4545 27.9723 49.418 26.8539 42.8497 26.8539C36.2832 26.8539 31.2339 28.4814 28.7852 29.4781C28.7852 28.5826 28.6773 27.4373 28.6348 27.2378C30.2537 26.4977 34.5859 24.9003 42.8516 24.9003ZM42.8497 28.8017C49.1931 28.8017 53.9684 30.1692 56.0008 30.9993C56.0008 38.0446 55.1203 47.2569 53.5987 52.9463C52.9375 55.4184 50.2301 57.7939 47.5921 59.4463C45.251 60.9127 43.3159 61.7059 42.8516 61.8925C42.3873 61.7059 40.4522 60.9127 38.1111 59.4463C35.4732 57.7939 32.7657 55.4184 32.1046 52.9463C30.5831 47.2572 29.2066 38.1987 29.2066 31.4183C31.2372 30.5886 36.5055 28.8017 42.8497 28.8017ZM48.1007 38.1576C47.848 38.1654 47.6082 38.2713 47.432 38.453L41.8757 44.0115L39.0533 41.1877C38.9644 41.0907 38.8568 41.0128 38.7371 40.9586C38.6174 40.9044 38.4879 40.875 38.3566 40.8722C38.2252 40.8694 38.0946 40.8933 37.9727 40.9423C37.8508 40.9914 37.7401 41.0647 37.6472 41.1578C37.5543 41.2509 37.4811 41.3618 37.4321 41.484C37.3831 41.6061 37.3593 41.7369 37.3621 41.8685C37.3649 42.0001 37.3942 42.1298 37.4483 42.2498C37.5024 42.3697 37.5802 42.4775 37.677 42.5666L41.189 46.0832C41.3717 46.2662 41.6194 46.3689 41.8776 46.3689C42.1359 46.3689 42.3836 46.2662 42.5663 46.0832L48.8093 39.8329C48.9501 39.6958 49.0463 39.5192 49.0852 39.3264C49.1241 39.1335 49.1039 38.9334 49.0272 38.7523C48.9506 38.5711 48.8212 38.4174 48.6558 38.3113C48.4905 38.2052 48.297 38.1516 48.1007 38.1576Z" fill="#0039A9"/>
</svg>
