<svg width="86" height="86" viewBox="0 0 86 86" fill="none" xmlns="http://www.w3.org/2000/svg">
<path d="M60.3301 38.6792H59.948V29.8915C59.948 29.8915 59.948 29.849 59.948 29.8236C59.9521 29.7557 59.9521 29.6877 59.948 29.6198C59.9514 29.5916 59.9514 29.5631 59.948 29.5349C59.9099 29.4507 59.8583 29.3732 59.7952 29.3056L52.2641 21.8255C52.1949 21.7521 52.111 21.6942 52.0178 21.6556H51.9414C51.8656 21.642 51.788 21.642 51.7122 21.6556H51.6697H35.232C34.5992 21.6556 33.9924 21.907 33.5449 22.3544C33.0975 22.8019 32.8461 23.4087 32.8461 24.0415V29.1358H24.0499C23.5545 29.1353 23.0779 29.3254 22.7191 29.6669C22.3602 30.0084 22.1466 30.475 22.1226 30.9698V59.2604C22.1248 60.3631 22.5638 61.42 23.3436 62.1997C24.1233 62.9795 25.1802 63.4185 26.2829 63.4207H58.7339C59.8321 63.4185 60.8847 62.9812 61.6612 62.2047C62.4378 61.4281 62.875 60.3756 62.8773 59.2773V41.2264C62.8773 40.5509 62.6089 39.903 62.1312 39.4253C61.6535 38.9476 61.0057 38.6792 60.3301 38.6792ZM57.0443 29.034H53.1641C52.9839 29.034 52.8112 28.9624 52.6838 28.835C52.5564 28.7076 52.4848 28.5349 52.4848 28.3547V24.4745L57.0443 29.034ZM34.5443 23.9396C34.5443 23.7572 34.6167 23.5823 34.7457 23.4533C34.8747 23.3243 35.0496 23.2519 35.232 23.2519H50.7867V28.3462C50.7867 28.9767 51.0372 29.5814 51.483 30.0273C51.9289 30.4731 52.5336 30.7236 53.1641 30.7236H58.2584V51.8566C58.2584 52.039 58.186 52.2139 58.057 52.3429C57.928 52.4719 57.7531 52.5443 57.5707 52.5443H56.2801V35.8519C56.2801 35.1763 56.0117 34.5284 55.5341 34.0508C55.0564 33.5731 54.4085 33.3047 53.7329 33.3047H40.9971L39.299 30.0783C39.1376 29.7669 38.894 29.5058 38.5946 29.3232C38.2952 29.1405 37.9515 29.0434 37.6009 29.0424H34.5443V23.9396ZM23.8207 59.2604V30.9698C23.8207 30.909 23.8448 30.8507 23.8878 30.8077C23.9308 30.7647 23.9891 30.7406 24.0499 30.7406H37.6348C37.6766 30.7391 37.7179 30.7494 37.7539 30.7705C37.79 30.7915 37.8194 30.8224 37.8386 30.8594L39.7575 34.5443C39.8292 34.6828 39.9376 34.7988 40.0709 34.8797C40.2042 34.9605 40.3572 35.0031 40.5131 35.0028H53.7414C53.9666 35.0028 54.1826 35.0923 54.3418 35.2515C54.501 35.4107 54.5905 35.6267 54.5905 35.8519V59.099C54.5794 60.0428 54.8776 60.9643 55.4395 61.7226H26.2829C25.6299 61.7226 25.0036 61.4632 24.5419 61.0015C24.0801 60.5397 23.8207 59.9134 23.8207 59.2604ZM61.1792 59.2604C61.175 59.8944 60.9248 60.5019 60.4812 60.955C60.0377 61.408 59.4356 61.6711 58.8018 61.6887C56.9169 61.2217 56.2546 60.3641 56.2546 58.5472V54.217H57.5367C58.1688 54.2147 58.7743 53.9627 59.2213 53.5157C59.6682 53.0688 59.9203 52.4632 59.9226 51.8311V40.3773H60.3046C60.5298 40.3773 60.7458 40.4668 60.905 40.626C61.0642 40.7853 61.1537 41.0012 61.1537 41.2264L61.1792 59.2604Z" fill="#0039A9"/>
<path d="M50.0823 38.6793H44.4531C44.2279 38.6793 44.0119 38.7687 43.8527 38.9279C43.6935 39.0872 43.604 39.3031 43.604 39.5283C43.604 39.7535 43.6935 39.9695 43.8527 40.1287C44.0119 40.2879 44.2279 40.3774 44.4531 40.3774H49.2332V43.0689C49.2332 43.2941 49.3227 43.51 49.4819 43.6693C49.6412 43.8285 49.8571 43.9179 50.0823 43.9179C50.3075 43.9179 50.5234 43.8285 50.6827 43.6693C50.8419 43.51 50.9314 43.2941 50.9314 43.0689V39.5283C50.9314 39.3031 50.8419 39.0872 50.6827 38.9279C50.5234 38.7687 50.3075 38.6793 50.0823 38.6793Z" fill="#0039A9"/>
<circle cx="43" cy="43" r="42" stroke="#0039A9" stroke-width="2"/>
</svg>
