<svg width="86" height="86" viewBox="0 0 86 86" fill="none" xmlns="http://www.w3.org/2000/svg">
<path d="M48.7482 47.624L45.6202 44.496C45.2522 44.128 44.7002 44.128 44.3322 44.496C43.9642 44.864 43.9642 45.416 44.3322 45.784L48.1042 49.556C48.2882 49.74 48.5642 49.832 48.7482 49.832C49.0242 49.832 49.2082 49.74 49.3922 49.556L57.0282 41.92C57.3962 41.552 57.3962 41 57.0282 40.632C56.6602 40.264 56.1082 40.264 55.7402 40.632L48.7482 47.624Z" fill="#0039A9"/>
<path d="M67.7919 55.628L61.5359 49.372C61.9959 48.268 62.3639 47.072 62.4559 45.876C62.7319 42.748 61.812 39.62 59.7879 37.228C58.6839 35.848 57.3039 34.836 55.7399 34.1V29.316C55.7399 27.108 53.8999 25.268 51.5999 25.268H49.1159V23.98C49.1159 22.6 48.0119 21.496 46.5399 21.496H43.7799C43.3199 20.024 41.9399 18.92 40.3759 18.92C38.7199 18.92 37.4319 20.024 36.9719 21.404H34.2119C32.7399 21.496 31.6359 22.6 31.6359 23.98V25.268H29.1519C26.8519 25.268 25.0119 27.108 25.0119 29.316V59.032C24.9199 61.24 26.8519 63.08 29.1519 63.08H51.5999C53.8999 63.08 55.7399 61.24 55.7399 58.94V55.996L61.5359 61.792C63.1919 63.448 65.952 63.54 67.6999 61.792C69.4479 60.044 69.5399 57.284 67.7919 55.628ZM58.408 38.332C60.0639 40.356 60.8919 43.024 60.6159 45.6C60.2479 49.372 57.8559 52.5 54.5439 53.88C54.5439 53.88 54.5439 53.88 54.4519 53.88C52.9799 54.524 51.4159 54.708 49.6679 54.616C44.1479 54.064 40.1919 49.188 40.7439 43.668C41.0199 41.092 42.2159 38.792 44.0559 37.136C44.0559 37.136 44.0559 37.136 44.1479 37.044C46.1719 35.296 48.9319 34.376 51.6919 34.652C52.7039 34.744 53.6239 35.02 54.5439 35.388C56.0159 36.124 57.304 37.044 58.408 38.332ZM33.4759 23.98C33.4759 23.612 33.8439 23.336 34.2119 23.336H37.7999C38.3519 23.336 38.7199 22.968 38.7199 22.416C38.7199 21.496 39.4559 20.852 40.3759 20.852C41.2959 20.852 42.1239 21.588 42.1239 22.416C42.1239 22.968 42.4919 23.336 43.0439 23.336H46.6319C46.9999 23.336 47.3679 23.612 47.3679 23.98V28.396C47.3679 28.764 46.9999 29.04 46.6319 29.04H34.2119C33.8439 29.04 33.4759 28.764 33.4759 28.396V23.98ZM51.5999 61.24H29.1519C27.8639 61.24 26.7599 60.228 26.7599 59.032V29.316C26.7599 28.12 27.7719 27.108 29.0599 27.108H31.5439V28.396C31.5439 29.776 32.6479 30.88 34.1199 30.88H46.5399C47.9199 30.88 49.1159 29.776 49.1159 28.396V27.108H51.5999C52.8879 27.108 53.8999 28.12 53.8999 29.316V33.364C53.2559 33.18 52.5199 32.996 51.7839 32.996C48.4719 32.628 45.4359 33.732 43.0439 35.664H32.0039C31.4519 35.664 31.0839 36.032 31.0839 36.584C31.0839 37.136 31.4519 37.504 32.0039 37.504H41.2959C40.6519 38.332 40.1919 39.16 39.7319 40.172H32.0959C31.5439 40.172 31.1759 40.54 31.1759 41.092C31.1759 41.644 31.5439 42.012 32.0959 42.012H39.2719C39.1799 42.564 38.9959 43.116 38.9959 43.668C38.9959 44.036 38.9959 44.312 38.9959 44.68H32.0959C31.5439 44.68 31.1759 45.048 31.1759 45.6C31.1759 46.152 31.5439 46.52 32.0959 46.52H38.9959C39.0879 47.44 39.3639 48.268 39.6399 49.188H32.0959C31.5439 49.188 31.1759 49.556 31.1759 50.108C31.1759 50.66 31.5439 51.028 32.0959 51.028H40.5599C41.1119 52.04 41.8479 52.868 42.6759 53.604H32.0959C31.5439 53.604 31.1759 53.972 31.1759 54.524C31.1759 55.076 31.5439 55.444 32.0959 55.444H45.4359C46.7239 56.088 48.0119 56.456 49.4839 56.64C50.9559 56.824 52.4279 56.64 53.8999 56.272V59.124C53.9919 60.136 52.8879 61.24 51.5999 61.24ZM66.5039 60.504C65.492 61.516 63.9279 61.516 62.9159 60.504L57.028 54.708C58.5 53.788 59.6959 52.592 60.6159 51.12L66.4119 56.916C67.5159 57.928 67.5159 59.492 66.5039 60.504Z" fill="#0039A9"/>
<circle cx="43" cy="43" r="42" stroke="#0039A9" stroke-width="2"/>
</svg>
