<svg width="86" height="86" viewBox="0 0 86 86" fill="none" xmlns="http://www.w3.org/2000/svg">
<path d="M30.3333 56V56.25H28.0833V62.5834H41.75V56.25H39.8333V50.75C39.8333 49.6667 39.4167 48.6667 38.6667 47.8334L34.5833 43.75C33.9167 43.0834 32.8333 42.8334 31.9167 43.25C31 43.6667 30.5 44.5834 30.5833 45.5834C30.6667 46.25 31 46.9167 31.5 47.4167L33.5833 49.5L33 49.5834C32.1667 49.5834 31.4167 49.25 30.8333 48.6667C29.4167 47.25 28.6667 45.4167 28.6667 43.5V41.5C28.6667 40 27.75 38.6667 26.4167 38.0834C26 37.9167 25.5833 37.75 25.1667 37.75C24.75 37.6667 24.3333 37.8334 24 38.0834C23.6667 38.3334 23.5 38.75 23.5 39.1667V44.5C23.5 47.5 24.6667 50.3334 26.8333 52.5L30.3333 56ZM40.0833 57.9167V60.9167H29.75V57.9167H30.25H39.8333H40.0833ZM25.0833 39.3334C25.25 39.4167 25.5 39.4167 25.6667 39.5C26.4167 39.8334 26.9167 40.5834 26.9167 41.3334V43.3334C26.9167 45.75 27.8333 48 29.5833 49.75C30.5 50.6667 31.75 51.1667 33 51.1667L35.0833 50.8334C35.4167 50.75 35.75 50.5 35.8333 50.1667C35.9167 49.8333 35.8333 49.4167 35.5833 49.1667L32.5833 46.1667C32.3333 45.9167 32.1667 45.6667 32.1667 45.4167C32.1667 45 32.4167 44.8334 32.5833 44.75C32.6667 44.6667 33 44.5834 33.3333 44.9167L37.4167 49C37.9167 49.5 38.1667 50.0834 38.1667 50.75V56.25H31.9167V56C31.9167 55.5 31.75 55.0833 31.4167 54.75L27.8333 51.1667C26 49.3334 25 46.9167 25 44.4167V39.3334H25.0833ZM60.9167 37.6667C60.8333 37.6667 60.75 37.6667 60.6667 37.6667C58.75 38.0834 57.3333 39.8334 57.3333 41.8334V43.4167C57.3333 45.4167 56.5833 47.25 55.1667 48.5834C54.5833 49.1667 53.8333 49.5 53 49.5L52.4167 49.4167L54.5 47.3334C55 46.8334 55.3333 46.1667 55.4167 45.5C55.5 44.5 55 43.5834 54.0833 43.1667C53.1667 42.75 52.1667 42.9167 51.4167 43.6667L47.3333 47.75C46.5833 48.5 46.1667 49.5834 46.1667 50.6667V56.1667H44.25V62.5H57.9167V56.1667H55.75V55.8334L59.3333 52.25C61.5 50.0833 62.6667 47.25 62.6667 44.25V38.9167C62.6667 38.5 62.5 38.0834 62.1667 37.8334C61.75 37.6667 61.3333 37.5834 60.9167 37.6667ZM56.1667 57.9167V60.9167H45.9167V57.9167H46.1667H55.75H56.1667ZM60.9167 44.3334C60.9167 46.9167 59.9167 49.3334 58.0833 51.0834L54.5 54.6667C54.1667 55 54 55.4167 54 55.9167V56.1667H47.75V50.6667C47.75 50 48 49.4167 48.5 48.9167L52.5833 44.8334C52.9167 44.5 53.25 44.6667 53.3333 44.6667C53.4167 44.75 53.75 44.9167 53.75 45.3334C53.75 45.5834 53.5833 45.9167 53.3333 46.1667L50.3333 49.1667C50.0833 49.4167 50 49.8333 50.0833 50.1667C50.1667 50.5 50.5 50.75 50.8333 50.8334L52.8333 51.1667H53C54.3333 51.1667 55.5 50.6667 56.4167 49.75C58.0833 48.0833 59.0833 45.75 59.0833 43.3334V41.75C59.0833 40.5834 59.8333 39.5 60.9167 39.25V44.3334ZM47.75 28.1667C47.75 25.5834 45.6667 23.4167 43 23.4167C40.3333 23.4167 38.25 25.5 38.25 28.1667C38.25 29.9167 39.1667 31.4167 40.5833 32.25C37.0833 33.3334 34.4167 36.5834 34.4167 40.4167V41.25H51.6667V40.4167C51.5833 36.5834 49 33.3334 45.5 32.25C46.8333 31.3334 47.75 29.8334 47.75 28.1667ZM49.9167 39.5H36.0833C36.5833 36.0834 39.5 33.5 43 33.5C46.5 33.5 49.4167 36.1667 49.9167 39.5ZM43 31.1667C41.3333 31.1667 39.9167 29.8334 39.9167 28.0834C39.9167 26.4167 41.25 25 43 25C44.6667 25 46.0833 26.3334 46.0833 28.0834C46.0833 29.8334 44.6667 31.1667 43 31.1667Z" fill="#0039A9"/>
<circle cx="43" cy="43" r="42" stroke="#0039A9" stroke-width="2"/>
</svg>
